<svg width="391" height="780" viewBox="0 0 391 780" fill="none" xmlns="http://www.w3.org/2000/svg">
<path fill-rule="evenodd" clip-rule="evenodd" d="M288.157 712.827C289.828 705.063 282.184 702.438 277.365 700.711C273.913 698.476 261.124 690.738 251.228 681.186C243.13 673.369 237.618 663.351 235.323 662.396C235.323 662.396 232.961 661.029 232.716 660.013C231.279 654.061 232.478 648.514 232.716 644.905C237.323 643.698 241.014 642.192 243.775 640.087C244.58 640.355 245.787 640.697 246.147 639.522C248.642 622.909 249.719 606.492 251.749 589.866C259.433 526.541 260.3 452.562 247.08 394.724C246.941 391.857 247.192 389.268 247.448 386.805C249.236 386.612 250.317 384.885 251.776 383.853C254.042 382.056 256.724 380.676 256.613 377.535C257.152 377.128 257.089 376.9 256.824 376.382C258.552 368.966 250.844 361.151 248.664 355.037C252.627 316.358 247.235 279.808 250.243 241.12C254.042 239.533 251.488 229.617 251.228 225.527C249.124 199.178 235.399 173.126 210.683 164.518C209.27 164.233 207.147 162.621 205.978 163.703C203.718 162.81 200.712 164.571 198.963 162.543L198.981 162.53C197.509 160.493 196.849 157.902 196.365 155.453C196.446 156.143 196.581 156.828 196.747 157.497C192.486 145.513 191.413 142.308 177.696 141.744C171.517 141.661 163.373 141.846 159.77 147.728C158.294 150.462 158.745 153.601 157.828 156.479C156.146 161.759 148.886 159.207 145.075 161.95C114.57 171.714 89.5482 191.645 81.3238 223.635C79.6423 227.49 77.7353 231.328 76.3296 235.307C76.112 235.897 75.5136 237.896 76.9509 238.816L77.646 239.261C68.4898 281.97 67.8823 317.959 98.6436 346.432C100.952 358.666 95.0136 375.374 97.2963 387.253C95.9956 389.095 97.645 390.579 99.3079 390.697C99.4682 390.786 100.116 391.069 100.293 391.149C97.6464 428.434 108.757 478.681 113.655 498.513C114.321 510.421 110.249 520.202 101.872 526.692C92.6161 532.381 74.3176 558.076 77.7099 585.029C73.7455 585.805 69.8098 586.231 66.0064 587.718C49.3646 584.786 49.5296 616.804 48.4692 628.061C46.6733 646.911 45.5571 674.231 63.5002 686.297C68.2272 689.719 77.8118 693.726 82.7233 688.248C84.3327 686.319 84.7358 684.455 84.1026 682.484C92.2129 671.049 90.0273 656.091 90.7723 642.678C93.1241 642.537 95.5847 643.638 97.8597 643.237C100.195 641.183 91.6764 641.743 90.7929 641.623C90.8834 639.554 91.0501 637.376 91.2653 635.291C92.6014 635.558 94.313 636.198 95.5978 636.247C96.3583 636.432 96.8957 635.387 96.4366 634.845C95.4339 633.891 92.8774 634.039 91.4387 633.903C91.6816 632.158 91.9787 630.322 92.3088 628.634C94.0689 628.571 95.8864 629.69 97.5528 629.461C96.2915 628.621 93.924 628.877 92.3865 628.322C93.3863 622.885 95.4235 617.723 97.3175 612.638C101.965 614.551 105.974 614.626 110.51 614.053C112.366 614.338 113.271 613.959 113.571 611.642L113.453 611.496C117.049 590.022 128.652 569.551 150.205 546.336C154.462 541.581 159.273 535.982 162.478 529.723C168.919 516.697 170.019 502.322 174.982 488.794C179.616 475.196 185.951 462.189 191.9 449.299C192.772 455.905 193.944 462.682 195.162 469.16C200.523 492.115 200.003 516.607 196.058 539.689C190.22 572.018 193.034 604.5 191.736 637.058C191.753 638.936 191.987 640.642 191.711 642.597C191.674 642.747 191.745 642.925 191.924 642.921L192.261 642.93C195.067 644.98 198.942 645.351 202.238 646.463C203.623 647.557 203.233 649.289 203.36 650.64C203.722 656.464 204.185 662.31 203.61 668.312C201.066 673.177 197.907 672.172 197.261 679.029C196.695 686.858 195.694 695.183 199.515 702.155L198.069 702.403C195.924 706.895 197.234 709.812 202.275 711.712C227.164 721.451 262.185 730.293 288.157 722.942C288.629 723.409 289.315 722.924 289.852 722.19C290.368 721.485 290.745 720.549 290.661 720.005C290.217 717.621 290.828 713.268 288.157 712.827Z" fill="white"/>
<path fill-rule="evenodd" clip-rule="evenodd" d="M289.224 720.626C266.859 730.649 226.249 718.002 204.274 710.685C198.349 708.552 196.375 708.134 198.035 701.317C201.141 707.299 207.822 708.744 214.222 709.944C235.903 714.876 258.006 723.983 281.192 719.539C284.595 719.005 287.963 717.166 288.953 713.772C289.564 715.21 289.186 717.158 289.43 718.74C289.476 719.37 289.49 720.052 289.224 720.626M198.771 683.347C199.175 679.329 199.821 675.084 202.113 671.534C201.863 677.276 205.319 687.036 212.89 683.785C215.034 682.65 216.236 680.366 217.616 678.532C222.202 672.498 228.082 667.258 234.725 663.45C238.42 664.085 240.009 670.828 242.391 673.651C239.736 674.832 234.924 677.523 234.438 680.306C237.753 679.193 240.804 677.12 244.281 676.392C245.395 677.925 246.576 679.413 247.815 680.85C246.195 681.562 239.664 684.857 239.707 686.501C243.239 685.929 246.661 684.203 250.211 683.495C251.791 685.058 253.228 686.74 254.8 688.308C252.425 689.284 249.917 690.374 248.62 692.65C248.559 692.753 248.71 692.868 248.794 692.768C250.573 690.628 253.634 690.235 256.287 689.753C260.357 693.578 264.915 696.953 270.016 699.477C275.119 702.262 282.876 702.899 284.906 708.941C286.531 714.981 281.465 715.626 276.791 716.052C272.063 716.724 267.301 716.825 262.604 716.433C247.92 715.823 234.038 711.508 220.162 707.739C203.196 704.623 197.691 702.099 198.771 683.347M204.796 648.177C213.785 649.4 223.019 648.646 231.799 646.482C231.192 648.996 230.779 651.551 230.527 654.121H230.547C230.457 654.94 230.232 655.996 230.224 657.001C230.281 658.479 230.26 660.284 231.158 661.515C224.657 666.312 218.312 671.658 213.797 678.35C210.809 683.794 206.834 680.48 205.846 676.119C205.212 668.403 205.51 661.045 205.196 653.647L205.168 653.651C205.086 651.825 204.971 649.999 204.796 648.177M203.747 648.025C203.706 648.291 203.671 648.556 203.633 648.824C203.585 648.542 203.552 648.257 203.483 647.98C203.571 647.994 203.659 648.011 203.747 648.025M199.218 644.122C197.715 643.664 196.221 643.178 194.731 642.678C194.366 642.56 193.758 642.524 193.563 642.157C199.106 630.629 195.855 617.233 196.116 604.911C194.18 571.312 201.902 538.306 203.006 504.909C202.918 485.981 196.328 467.945 192.981 449.458C196.403 442.151 199.593 434.761 202.687 427.329C202.787 427.103 202.405 426.964 202.281 427.165C198.633 432.761 195 438.357 191.618 444.106C175.25 468.447 167.891 496.204 160.139 523.882C157.626 530.186 153.594 535.742 149.115 540.911C130.531 560.945 113.185 583.8 108.856 610.872C91.6088 610.298 86.6265 599.737 80.6038 586.414C80.6202 586.365 80.6368 586.315 80.6537 586.265C80.4373 585.888 80.2877 585.485 80.169 585.068C80.1146 585.111 80.0599 585.156 80.0051 585.201C75.9823 577.524 81.6746 561.517 84.7216 553.506C88.7138 544.601 94.0884 536.318 101.175 529.435C106.395 524.808 111.798 519.765 114.035 513.131C117.768 502.755 114.472 491.165 112.38 480.739C107.323 454.883 102.42 415.108 103.196 388.71C109.658 381.029 120.991 381.787 130.056 379.962C132.704 382.451 134.963 385.383 138.268 386.992C142.116 390.575 145.866 394.33 148.692 398.719C151.841 404.713 155.821 409.92 161.405 413.954C164.226 416.18 168.294 419.408 172.239 418.045C175.039 417.135 176.595 414.324 179.352 413.381C182.665 412.707 184.65 412.463 186.605 409.494C188.963 409.029 191.212 407.875 190.523 405.144C191.141 405.353 191.758 405.554 192.366 405.765C193.599 406.192 194.929 404.867 194.518 403.711C193.501 401.321 192.323 398.966 191.927 396.382C191.511 384.875 188.538 381.706 177.946 377.094C182.185 376.883 186.339 377.919 190.362 379.066C210.442 386.397 223.61 390.914 244.533 381.711C254.71 466.248 254.541 552.446 242.032 636.694C230.098 645.501 213.465 645.266 199.218 644.122M78.7514 595.354C78.7918 595.008 78.8366 594.665 78.8841 594.319C81.3991 601.137 85.7072 607.617 92.122 611.566C89.6662 614.623 84.8831 615.533 81.6556 613.031C76.0271 608.819 78.3738 601.199 78.7514 595.354M89.4548 627.145C86.9566 626.953 76.2717 626.585 74.9895 628.259C76.4335 628.868 78.4187 628.531 79.9718 628.6C82.9882 628.723 85.9972 628.989 88.9824 629.41C88.7589 630.572 88.5571 631.731 88.3911 632.894C85.3797 633.181 79.5159 633.312 77.6043 635.414C81.0144 635.957 84.5649 635.468 87.9871 636.146C87.8209 637.739 87.6997 639.334 87.6097 640.929C86.2463 641.074 78.2289 642.399 78.236 643.657C81.2377 644.055 84.4176 643.531 87.4767 643.828C86.8139 653.386 89.0608 682.252 75.9701 684.018C64.5255 683.416 59.505 664.905 57.9497 656.024C54.5011 635.333 55.0927 613.272 61.9276 593.328C64.3688 587.782 71.014 586.82 76.633 586.533C76.8465 587.471 77.0578 588.393 77.2953 589.323C74.8587 594.835 74.0823 601.043 74.0156 607.008C74.531 615.583 85.1325 621.959 92.8319 616.294C91.3927 619.802 90.2815 623.452 89.4548 627.145M74.3103 688.831C51.6417 683.968 47.9226 657.769 49.4808 638.505C50.7511 625.094 49.2243 596.822 61.6282 588.943C45.5976 603.548 46.9895 702.974 82.5153 685.62C81.6295 688.421 77.0745 689.229 74.3103 688.831M99.8734 391.96C100.019 391.912 100.161 391.848 100.291 391.77C100.258 395.079 100.31 398.387 100.432 401.691C100.199 398.449 100.014 395.204 99.8734 391.96M98.0044 341.588C67.7485 311.499 73.5216 277.382 80.4708 239.799C91.6872 241.136 102.966 243.821 113.066 248.751C109.504 265.339 109.276 280.375 107.741 297.208C107.278 299.289 107.801 303.296 110.755 302.372C137.912 323.89 141.068 368.109 176.706 380.896C191.231 386.788 185.101 391.571 189.901 402.696C187.26 402.213 184.904 400.004 183.769 397.89C183.206 396.84 181.567 397.764 182.116 398.811C183.299 401.065 185.284 402.879 187.638 404.011C187.348 404.58 187.248 405.22 187.217 405.82C182.978 406.685 184.17 408.692 181.306 409.65C179.432 410.167 177.63 410.387 176.01 411.52C170.498 416.644 169.13 416.267 163.214 411.759C163.295 411.352 155.244 403.504 152.751 399.117C150.673 395.458 148.497 391.772 145.312 388.942C129.716 373.006 113.102 357.965 98.0044 341.588M246.642 241.517C245.096 262.791 245.495 281.795 245.828 303.102C246.02 317.434 246.11 331.771 245.611 346.098C232.97 313.49 236.839 278.107 235.043 243.833C238.779 242.591 242.792 242.048 246.642 241.517M156.021 159.744C155.976 159.822 155.928 159.901 155.881 159.976C155.567 159.998 155.251 160.026 154.931 160.062C155.294 159.953 155.658 159.851 156.021 159.744M199.099 162.247C199.087 162.211 199.075 162.176 199.066 162.143C199.094 162.159 199.123 162.178 199.154 162.197C199.13 162.211 199.116 162.228 199.099 162.247M291.425 716.476C291.364 714.78 291.34 712.589 289.35 711.987C290.252 704.678 284.172 700.517 277.789 698.492C272.346 695.169 266.173 692.847 261.171 688.841C263.494 688.406 265.817 687.88 267.881 686.871C269.438 686.111 268.688 683.578 267 683.812C264.009 684.206 261.324 685.723 258.514 686.778C256.918 685.469 255.372 684.103 253.912 682.657C255.731 682.306 258.044 682.435 259.103 680.633C259.433 680.069 259.286 679.485 258.887 679.05C257.044 677.188 253.391 679.047 251.102 679.59C250.003 678.325 248.941 677.035 247.898 675.729C249.627 675.57 254.125 675.886 253.244 673.037C251.556 670.81 247.925 672.146 245.483 672.605C242.386 668.804 241.389 662.974 236.549 660.883C236.375 659.961 235.169 660.032 234.364 660.306C233.855 657.883 233.582 655.971 233.463 654.121L233.403 654.116C233.35 651.409 233.454 648.697 233.616 646.001C237.209 645.008 240.774 643.705 243.761 641.567C245.134 641.97 246.799 641.505 247.084 639.896C249.568 623.414 250.672 606.729 252.693 590.188C260.062 529.274 261.668 454.924 248.026 394.744C247.92 392.464 248.081 390.182 248.311 387.919C249.938 387.485 250.907 385.899 252.254 384.982C254.757 382.946 257.303 381.806 257.533 378.253C258.039 377.772 258.098 377.045 257.821 376.414C258.469 372.766 257.514 369.145 255.569 365.993C253.437 362.402 251.423 358.778 249.644 355.01C253.534 317.026 248.257 280.214 251.142 242.041C254.842 240.086 252.52 229.221 252.176 225.6C250.014 201.816 238.888 175.555 215.232 165.662C213.571 164.264 211.254 163.79 209.225 163.02C207.855 162.347 205.625 161.764 204.687 163.33C203.692 162.868 200.488 162.515 199.391 161.714C199.187 161.564 199.056 161.401 199.025 161.218C198.945 161.221 198.85 161.204 198.747 161.183C197.736 159.756 196.771 149.818 195.525 150.527C194.164 153.94 195.107 157.796 196.408 161.242C197.306 164.29 198.536 172.13 203.305 170.125C204.127 169.718 203.618 168.658 202.882 168.573C200.621 167.928 200.118 164.612 199.244 162.669C200.279 163.527 204.996 164.814 205.511 165.086C215.742 188.522 153.883 187.292 149.02 171.135C145.552 165.553 148.545 162.529 154.727 161.633C150.183 166.672 155.935 167.791 158.122 162.849C160.215 159.31 161.167 155.011 160.452 150.939C160.82 149.51 161.132 147.6 158.989 147.984C158.916 147.794 158.799 147.943 158.845 148.079C158.063 149.321 158.607 151.105 158.329 152.539C158.094 154.886 157.427 157.185 156.294 159.261C154.192 159.661 152.1 160.09 150.017 160.56C148.768 158.026 140.665 163.079 138.489 163.674C109.589 172.194 87.6119 194.886 79.9412 223.507C78.2289 227.318 76.381 231.148 74.9798 235.078C74.3528 236.78 74.3528 238.891 76.0746 239.993C67.6841 278.406 65.637 318.427 97.3349 347.238C98.0543 350.357 97.5748 353.666 97.5534 356.842C97.8192 364.075 91.6254 388.867 98.8192 392.073C96.7172 424.188 104.6 467.886 112.24 498.868C112.805 509.517 109.587 519.203 100.926 525.922C84.458 538.209 77.5209 558.717 75.5949 578.261C75.3218 580.264 75.5902 582.302 76.0416 584.269C72.4719 584.933 69.1307 585.364 65.6655 586.67C46.5547 583.016 47.9181 623.992 46.4552 636.151C45.3103 654.126 46.0251 675.672 62.5757 687.442C68.1401 691.396 77.9627 695.193 83.3848 689.206C84.9187 687.374 85.7549 685.231 85.1515 682.889C92.9245 671.529 91.0887 657.01 91.6706 644.084C93.7058 644.155 95.924 645.06 97.9286 644.562C99.4723 644.155 99.6694 642.178 98.3632 641.391C96.4773 640.325 93.9148 640.73 91.8059 640.659C91.8703 639.422 91.9629 638.185 92.0817 636.947C94.0835 637.436 96.9523 638.609 97.5484 635.817C97.7885 633.274 94.5703 633.079 92.5661 632.97C92.7063 632.01 92.863 631.055 93.0411 630.102C94.5753 630.257 96.1947 631.233 97.703 630.766C98.5578 630.43 98.8546 629.567 98.23 628.868C97.0689 627.732 95.0833 627.96 93.547 627.607C94.4801 623.044 96.1665 618.681 97.7909 614.318C100.731 615.337 103.916 616.01 107.053 615.754C108.68 615.413 110.456 615.315 112.1 615.536C113.928 615.052 114.351 613.102 114.591 611.509C114.555 611.452 114.519 611.398 114.479 611.348C118.704 586.794 133.861 565.581 150.855 547.305C155.536 542.077 160.127 536.64 163.307 530.43C169.767 517.452 170.926 502.849 175.868 489.366C180.031 477.122 185.595 465.381 191.05 453.622C193.238 469.109 197.322 484.341 197.791 500.046C198.503 519.914 194.116 539.494 192.245 559.203C188.88 585.144 191.936 611.246 190.312 637.206C190.324 639.043 190.561 640.773 190.3 642.61C190.155 643.626 190.887 644.264 191.656 644.285C194.482 646.136 198.033 646.793 201.281 647.584C202.182 648.272 201.792 649.964 201.951 651C202.014 652.043 202.08 653.083 202.143 654.121H202.15C202.436 658.505 202.655 662.302 202.193 667.076C199.016 671.765 196.727 671.016 195.843 678.143C195.356 685.584 194.285 693.63 197.543 700.384C196.085 700.715 195.532 705.156 195.75 706.331C196.121 709.646 199.049 710.694 201.88 711.838C222.568 719.574 266.525 732.309 287.782 723.551C289.305 724.411 291.003 722.726 291.494 721.369C292.145 719.717 291.546 718.117 291.425 716.476" fill="black"/>
<path fill-rule="evenodd" clip-rule="evenodd" d="M227.163 76.7546C227.083 73.9204 222.952 72.7437 221.759 75.5506C221.685 75.6257 221.604 75.698 221.529 75.7627C221.902 75.443 221.121 75.972 220.994 76.0374C220.885 76.0934 220.774 76.1438 220.663 76.196C219.896 69.016 217.29 61.2757 210.557 57.6718C201.165 53.1268 190.314 52.2397 180.011 52.6912C174.791 53.0003 168.764 53.8331 164.127 51.1981C162.682 50.3771 161.524 49.0846 159.892 48.5772C154.737 47.1857 152.399 52.4677 153.101 56.8114C150.903 56.8287 148.722 58.0434 147.773 60.0433C147.216 61.2269 147.226 62.5042 146.746 63.692C145.271 66.7044 143.162 68.8698 144.355 72.5221C142.257 74.9038 143.453 78.5094 145.146 80.7897C145.981 81.9757 146.977 83.1143 147.589 84.4418C148.183 85.7129 147.286 87.2203 146.787 88.4252C143.096 97.1588 143.307 106.777 145.293 115.887C141.308 117.612 140.112 123.007 142.711 126.403C143.605 127.604 144.696 128.05 145.933 128.788C147.498 129.648 146.219 133.092 146.721 134.756C147.402 138.816 151.107 141.317 154.77 138.68C157.095 138.329 158.97 145.079 160.658 146.773C161.698 148.138 162.852 149.364 164.108 150.495C167.848 160.1 187.015 164.971 196.491 164.415C206.415 163.378 213.109 154.967 218.684 147.503C221.546 143.526 223.408 139.074 224.085 134.219C224.765 129.339 224.468 124.451 224.008 119.566C223.042 109.185 221.518 94.231 220.534 83.7388C224.09 83.4466 227.27 80.4254 227.163 76.7546V76.7546Z" fill="white"/>
<path fill-rule="evenodd" clip-rule="evenodd" d="M149.649 70.514C149.645 70.5287 149.65 70.5399 149.654 70.5555C149.654 70.551 149.655 70.5486 149.656 70.5432C149.653 70.5313 149.651 70.5235 149.649 70.514" fill="#4F66AF"/>
<path fill-rule="evenodd" clip-rule="evenodd" d="M149.648 70.6649C149.635 70.6512 149.616 70.641 149.598 70.6273C149.597 70.6277 149.597 70.6282 149.597 70.6287C149.614 70.64 149.631 70.6531 149.648 70.6649" fill="#4F66AF"/>
<path fill-rule="evenodd" clip-rule="evenodd" d="M226.597 78.096C227.765 77.1276 229.605 78.0192 229.209 79.6136C228.779 81.3499 226.914 82.5364 225.374 83.2498C223.79 83.9838 222.246 84.1253 220.518 84.0452L220.496 84.0404V84.0404C220.976 85.9609 221.248 87.9573 221.616 89.8894C222.082 92.3405 222.54 94.7929 222.991 97.2464C223.428 99.6179 223.98 101.993 224.316 104.376C224.654 106.782 224.979 109.189 225.312 111.596C225.867 115.615 226.314 119.653 226.787 123.684L227.012 125.592C227.485 129.631 227.865 133.674 226.969 137.693C226.129 141.46 224.237 144.973 222.042 148.118C219.892 151.196 217.491 154.157 214.855 156.835C209.771 161.999 203.501 166.136 196.149 166.903C192.984 167.233 189.603 166.866 186.627 165.717L186.429 165.64C183.417 164.453 179.728 162.421 178.944 159.086C178.462 157.04 180.575 155.443 182.427 156.414C183.285 156.864 183.93 157.377 184.635 158.022L184.76 158.137C185.336 158.671 185.557 158.835 186.221 159.252C187.584 160.107 188.605 160.512 190.153 160.901C193.006 161.617 196.085 161.504 198.981 160.657C205.131 158.858 209.902 154.166 213.989 149.46C216.208 146.905 218.314 144.225 219.939 141.247C221.643 138.122 222.43 134.842 222.383 131.286C222.329 127.275 221.774 123.248 221.409 119.256C221.038 115.185 220.694 111.117 220.392 107.041C220.108 103.219 220.081 99.3791 219.982 95.5449L219.962 94.8261C219.904 92.7906 219.864 90.7545 219.817 88.7185C219.772 86.6886 219.611 84.6327 219.82 82.6113C219.835 82.4641 220.034 82.4269 220.082 82.5757C220.206 82.9545 220.314 83.3391 220.416 83.7259C220.432 83.7141 220.449 83.7034 220.47 83.6961C221.825 83.2315 223.073 82.3041 224.089 81.3039C225.059 80.3495 225.566 78.9514 226.597 78.096ZM152.482 49.6554C153.333 46.1675 157.162 45.3885 159.994 47.0682C161.356 47.8759 162.446 49.0408 163.719 49.9666C164.984 50.8871 166.381 51.6264 167.856 52.1485C170.787 53.1856 173.878 53.5627 176.975 53.5762C184.513 53.6092 191.897 51.4951 199.446 51.7309C205.287 51.9134 211.487 53.6362 215.724 57.8502C218.007 60.1203 219.477 63.0389 220.266 66.1373C220.635 67.5854 220.91 69.0686 221.127 70.5484L221.18 70.9183C221.301 71.7831 221.496 72.6987 221.514 73.5728C221.53 74.3578 221.331 75.1792 221.223 75.9561C220.996 77.5939 218.454 77.4074 218.089 75.9561C217.257 72.652 217.605 69.2419 216.589 65.9491C215.688 63.0291 213.941 60.4761 211.41 58.73C200.733 51.3638 187.04 57.5324 175.276 56.9593C172.401 56.8192 169.483 56.3758 166.771 55.3877C165.373 54.8781 163.996 54.2567 162.728 53.475C161.566 52.7593 160.559 51.8601 159.484 51.0326L159.009 50.6728C158.272 50.1192 157.017 49.2538 156.273 49.986C155.95 50.3047 155.93 51.0254 155.936 51.5758L155.94 51.8245C155.973 54.1609 156.451 56.4931 155.574 58.7504C155.175 59.78 154.064 60.4292 153.008 59.8461L152.953 59.8148C150.718 58.4882 147.783 61.1539 149.499 63.3601L149.553 63.4269C150.518 64.5982 150.004 66.6609 148.275 66.6558L148.213 66.6547C145.133 66.5587 143.767 70.3999 146.421 72.0782L146.503 72.1284C148.658 73.4156 146.768 76.5103 144.559 75.4478C144.746 75.5378 144.42 75.5366 144.234 75.786C144.055 76.0254 144.042 76.2325 144.085 76.5349C144.214 77.4512 145.021 78.2234 145.675 78.8031C147.161 80.1202 149.003 81.0296 150.9 81.5832C158.502 83.8012 166.302 81.0881 173.708 79.4497C181.43 77.7415 190.152 77.0535 196.886 81.9006C196.966 81.958 196.896 82.0862 196.808 82.035C191.975 79.234 186.055 79.4826 180.773 80.6309C173.845 82.1369 166.978 84.94 159.883 85.6785C161.875 89.1877 162.708 93.3323 162.176 97.3461C161.81 100.109 160.708 102.506 159.407 104.934L159.159 105.397C157.998 107.577 157.099 109.637 157.085 112.162C157.071 114.671 153.333 115.201 152.7 112.755C151.261 107.2 156.502 102.825 158.64 98.2453C160.467 94.3299 160.523 89.7648 159.045 85.7558C157.376 85.8897 155.694 85.9037 153.996 85.7525C152.537 85.6224 151.036 85.36 149.573 84.9448L148.988 87.4001C148.212 90.6707 147.494 93.9391 147.276 97.3361C147.116 99.8323 147.125 102.341 147.368 104.831C147.579 106.981 148.024 109.056 148.477 111.155C148.866 111.667 149.064 112.45 148.955 113.073C151.477 113.798 153.461 115.784 154.186 118.415C154.23 118.575 154.005 118.665 153.921 118.526C152.202 115.679 147.773 114.631 144.972 116.512C142.297 118.308 141.242 121.934 142.756 124.805C143.553 126.314 144.734 127.375 146.256 128.105L146.562 128.249C147.36 128.626 148.093 129.036 148.606 129.793C149.272 130.775 149.294 131.813 149.231 132.934L149.204 133.389C149.162 134.141 149.152 134.915 149.377 135.638L149.428 135.799C149.487 135.98 149.549 136.139 149.657 136.311C149.69 136.362 149.993 136.659 150.092 136.766L150.216 136.804V136.804L150.355 136.809V136.809C150.51 136.812 150.712 136.745 150.646 136.791L150.664 136.781C150.723 136.745 150.776 136.706 150.822 136.672L150.908 136.605C151.11 136.314 151.362 136.074 151.672 135.89L151.968 135.759V135.759C152.738 134.948 154.056 135.374 154.607 136.182C155.004 136.762 155.217 137.353 155.235 137.935C155.297 137.836 155.435 137.781 155.522 137.893L156.045 138.557C158.046 141.108 160.012 143.675 162.285 146C163.537 147.282 164.884 148.486 166.292 149.595C167.494 150.542 169.775 151.453 169.81 153.177C169.821 153.737 169.422 154.134 168.935 154.324C167.349 154.942 165.389 152.839 164.243 151.815L164.15 151.733C162.748 150.507 161.468 149.162 160.287 147.723C157.994 144.929 156.076 141.712 155.231 138.174C155.191 138.791 154.926 139.396 154.409 139.967C153.721 140.727 152.779 141.26 151.774 141.479C149.495 141.976 147.27 141.158 145.914 139.263C144.768 137.661 144.431 135.546 144.579 133.611L144.597 133.378C144.618 133.068 144.644 132.498 144.725 132.256L144.007 131.863V131.863C143.128 131.396 142.312 130.783 141.581 130.11C138.64 127.404 137.164 123.007 138.509 119.159C139.35 116.752 141.117 114.658 143.38 113.569C143.001 112.697 142.875 111.661 142.732 110.744L142.708 110.593C142.466 109.089 142.264 107.567 142.186 106.045C142.042 103.203 142.218 100.335 142.665 97.5262C143.392 92.964 144.896 88.1257 147.654 84.2984C145.55 83.4646 143.614 82.2575 142.119 80.5814C140.557 78.8299 139.561 76.3223 140.769 74.098C141.077 73.5311 141.478 73.0544 141.939 72.6759C141.139 71.1695 140.881 69.3891 141.374 67.6873C141.963 65.6528 143.564 64.0661 145.497 63.3252C145.028 61.3976 145.412 59.3242 146.846 57.7178C148.269 56.1241 150.479 55.5437 152.524 55.9079C152.635 53.8578 151.989 51.6773 152.482 49.6554ZM146.746 121.635C148.621 120.719 150.843 120.865 152.716 121.733L152.843 121.793C154.888 122.783 157.597 125.095 156.947 127.554C156.566 128.992 154.965 129.483 153.723 128.863C152.686 128.344 152.45 127.416 151.929 126.485C151.562 125.826 151.107 125.311 150.573 124.781C149.447 123.665 148.182 122.836 146.746 122.173C146.538 122.077 146.546 121.733 146.746 121.635ZM193.995 71.9273C193.819 71.8472 193.947 71.5725 194.124 71.6228C198.836 72.9657 203.229 75.98 205.854 80.1639C206.014 80.4192 206.039 80.8394 205.854 81.092L205.769 81.2067C205.649 81.3636 205.53 81.4793 205.304 81.5144C204.878 81.5803 204.508 81.4696 204.263 81.092C201.677 77.1041 198.364 73.9215 193.995 71.9273ZM225.54 72.717C225.939 72.0422 226.997 72.178 227.208 72.9346L227.239 73.0004C227.352 73.2583 227.301 73.3111 227.088 73.1652C227.614 73.597 227.851 74.2403 227.691 74.9319C226.824 78.6671 222.584 81.3345 218.888 80.9673C218.566 80.9353 218.522 80.5398 218.814 80.4217C220.236 79.8472 221.498 78.9141 222.513 77.7691C223.499 76.6561 223.914 75.3827 224.445 74.0386C224.644 73.534 224.953 73.1706 225.39 72.9723C225.447 72.8926 225.498 72.8078 225.54 72.717ZM204.523 70.3166L204.548 70.3182C206.447 70.563 208.09 71.4983 209.423 72.8687C210.708 74.1883 212.328 76.366 212.19 78.3026C212.098 79.5865 210.269 80.3205 209.586 79.0065C209.179 78.2225 209.086 77.3631 208.801 76.534C208.539 75.7742 208.178 75.0527 207.745 74.3761C206.854 72.982 205.629 71.8009 204.375 70.7353C204.228 70.6106 204.33 70.3173 204.523 70.3166V70.3166ZM155.817 69.7476C155.396 69.3476 155.834 68.6655 156.369 68.8006C159.194 69.5142 161.991 70.3821 164.928 70.4684C166.394 70.5113 167.853 70.3959 169.306 70.2065L170.041 70.109C171.174 69.9614 172.327 69.8455 173.447 70.0778C174.193 70.2326 174.339 71.1925 173.874 71.6933C171.677 74.0584 167.439 73.8323 164.526 73.4336C161.361 73.0004 158.169 71.9836 155.817 69.7476ZM206.821 62.3756C206.628 62.108 206.954 61.6857 207.261 61.8044C210.068 62.8871 213.01 65.7058 213.783 68.655C213.987 69.434 213.003 70.0223 212.425 69.444C211.348 68.3663 210.587 67.0933 209.677 65.8819C208.769 64.6744 207.708 63.6019 206.821 62.3756ZM160.831 63.6927C160.606 63.4682 160.832 63.0212 161.156 63.1355C162.983 63.7813 164.825 64.3402 166.744 64.6334C168.711 64.9334 170.696 64.7054 172.672 64.827C173.472 64.8761 174.017 66.1175 173.128 66.5039C169.178 68.22 163.813 66.6638 160.831 63.6927ZM165.877 59.8433C165.563 59.6115 165.741 58.9753 166.169 59.1529C167.909 59.876 169.669 60.0537 171.537 59.9793C172.227 59.9516 172.372 61.0335 171.699 61.1795C169.635 61.6277 167.564 61.088 165.877 59.8433Z" fill="black"/>
<path fill-rule="evenodd" clip-rule="evenodd" d="M197.519 143.848C195.923 143.198 194.498 142.114 193.457 140.729C193.095 140.247 193.001 139.739 193.077 139.274C193.162 138.751 193.472 138.277 193.895 137.959C194.319 137.64 194.85 137.483 195.362 137.563C195.808 137.633 196.252 137.876 196.603 138.381L196.676 138.482C197.295 139.318 198.102 140.004 199.021 140.446C199.907 140.872 200.898 141.071 201.924 140.955C203.877 140.735 205.223 139.681 206.654 138.25C206.831 138.069 207.008 137.882 207.187 137.693C207.299 137.521 207.456 137.411 207.629 137.353C207.822 137.289 208.04 137.293 208.239 137.362C208.432 137.429 208.604 137.556 208.719 137.725C208.829 137.886 208.891 138.085 208.871 138.313C208.74 139.796 207.963 141.12 206.859 142.16C205.633 143.315 204.008 144.113 202.478 144.393C200.792 144.702 199.075 144.481 197.519 143.848V143.848ZM203.273 120.962C205.066 122.05 207.799 124.587 205.87 127.284C203.599 129.662 200.329 126.935 198.718 125.702C197.224 124.746 195.545 127.204 196.932 128.32C208.574 136.923 213.299 121.247 204.18 119.683C203.176 119.511 202.803 120.626 203.273 120.962ZM182.409 110.955C182.608 108.501 186.353 107.944 186.726 110.372C187.06 112.548 186.667 114.547 185.685 116.506C184.747 118.377 182.388 117.504 182.21 115.8C181.971 113.516 182.286 112.482 182.409 110.955ZM210.923 109.869C211.446 109.186 212.2 108.72 213.103 108.984C215.926 109.807 215.094 113.806 214.102 115.752C213.564 116.809 211.823 117.077 211.036 116.147C209.753 114.629 209.139 111.598 210.77 110.103C210.814 110.025 210.863 109.947 210.923 109.869ZM185.645 100.215L186.091 100.137C187.47 99.8992 189.185 99.6704 190.161 100.777C190.678 101.364 190.857 102.455 190.161 103.016C188.937 104.005 187.585 103.622 186.118 103.705C184.91 103.775 183.749 103.974 182.585 104.306C180.031 105.034 177.951 106.364 175.77 107.824C175.484 108.016 175.192 107.65 175.328 107.383C176.587 104.922 179.027 102.901 181.471 101.669C182.775 101.011 184.202 100.465 185.645 100.215ZM208.35 99.1128L208.692 99.1825C212.405 99.9572 217.23 101.505 218.989 105.145C219.056 105.66 218.985 105.77 218.927 105.842L218.908 105.866C218.861 105.928 218.823 106.013 218.599 106.083C218.537 106.068 218.475 106.052 218.411 106.036C217.605 105.825 216.967 105.534 216.35 105.233L215.681 104.904C214.904 104.524 214.12 104.158 213.29 103.887C211.518 103.31 209.695 102.904 207.844 102.687C207.442 102.64 207.056 102.505 206.751 102.273C206.462 102.053 206.241 101.749 206.14 101.344C206.01 100.821 206.047 100.425 206.329 99.9522C206.54 99.5975 206.843 99.3516 207.191 99.2104C207.545 99.0665 207.949 99.0326 208.35 99.1128Z" fill="black"/>
<path fill-rule="evenodd" clip-rule="evenodd" d="M228.512 114.78C226.248 130.064 210.442 131.755 207.634 116.581C208.085 116.384 208.409 115.996 208.341 115.243C208.325 111.937 209.354 108.442 212.343 106.603C215.432 104.705 219.047 104.517 222.621 104.565C229.442 104.403 229.299 110.093 228.512 114.78M205.16 108.132C203.019 108.042 200.311 108.118 198.393 109.419C197.866 108.003 196.496 106.49 195.112 105.681C200.256 105.831 205.552 105.326 210.735 104.934C209.494 105.778 208.34 107.046 207.59 108.511C206.894 108.141 205.897 108.176 205.16 108.132M195.724 116.4C189.788 136.792 174.97 127.904 173.355 125.291C170.441 120.966 169.893 110.454 172.431 107.643C176.064 105.101 181.208 105.756 185.5 105.693C193.384 105.799 198.984 108.153 195.724 116.4M235.521 107.022C233.909 106.811 232.185 106.769 230.686 107.477C230.224 105.519 228.775 103.882 227.138 103.161C226.94 102.913 226.97 102.78 226.293 102.817C222.138 101.571 217.489 102.23 213.496 103.508C207.19 104.038 200.575 104.456 194.216 105.186C188.259 102.517 170.283 102.125 169.166 108.706C167.761 108.496 165.367 107.392 164.187 108.889C155.525 107.424 146.575 109.46 137.876 110.367C135.687 110.77 134.559 115.107 137.044 115.047C138.442 114.669 137.001 112.347 138.883 112.172C147.276 111.257 155.486 109.96 163.965 109.808C163.67 111.269 169.573 111.364 169.66 110.511C169.673 110.517 169.686 110.521 169.699 110.527C168.24 115.952 169.557 123.76 172.193 127.124C175.886 131.529 185.159 132.793 189.271 129.959C194.575 127.343 200.092 114.212 198.542 109.849C201.355 108.96 204.136 109.227 207.055 109.68C206.387 111.564 205.233 116.202 206.893 116.604C206.588 125.812 214.985 131.557 222.726 127.78C229.426 124.641 231.769 114.706 230.949 108.676C231.783 110.284 238.786 108.533 235.521 107.022" fill="black"/>
</svg>
